<mxfile host="app.diagrams.net" modified="2023-05-09T14:13:35.077Z" agent="Mozilla/5.0 (Windows NT 10.0; Win64; x64) AppleWebKit/537.36 (KHTML, like Gecko) Chrome/113.0.0.0 Safari/537.36" version="21.1.8" etag="yb4LFILIIY8IGcev7d7K" type="github">
  <diagram name="第 1 页" id="NcT0RokhLDdt7U6VuLQB">
    <mxGraphModel>
      <root>
        <mxCell id="0" />
        <mxCell id="1" parent="0" />
      </root>
    </mxGraphModel>
  </diagram>
</mxfile>
